<mxfile host="app.diagrams.net" modified="2022-12-17T14:05:09.758Z" agent="5.0 (Windows)" etag="gHoRdczbP0KbghEY1XV0" version="20.7.3" type="github">
  <diagram id="o34bLKSb2FJ5GCY2DV4U" name="Seite-1">
    <mxGraphModel dx="1562" dy="826" grid="1" gridSize="10" guides="1" tooltips="1" connect="1" arrows="1" fold="1" page="1" pageScale="1" pageWidth="3300" pageHeight="4681" math="0" shadow="0">
      <root>
        <mxCell id="0" />
        <mxCell id="1" parent="0" />
        <mxCell id="9tMe9ChNtQxmry1n6Ols-18" style="edgeStyle=orthogonalEdgeStyle;rounded=0;orthogonalLoop=1;jettySize=auto;html=1;exitX=0;exitY=0.5;exitDx=0;exitDy=0;entryX=1;entryY=0.5;entryDx=0;entryDy=0;fontSize=14;strokeColor=default;strokeWidth=1;" parent="1" source="9tMe9ChNtQxmry1n6Ols-2" target="9tMe9ChNtQxmry1n6Ols-6" edge="1">
          <mxGeometry relative="1" as="geometry" />
        </mxCell>
        <mxCell id="9tMe9ChNtQxmry1n6Ols-19" style="edgeStyle=orthogonalEdgeStyle;rounded=0;orthogonalLoop=1;jettySize=auto;html=1;exitX=0;exitY=0.5;exitDx=0;exitDy=0;entryX=1;entryY=0.5;entryDx=0;entryDy=0;fontSize=14;strokeColor=default;strokeWidth=1;" parent="1" source="9tMe9ChNtQxmry1n6Ols-2" target="9tMe9ChNtQxmry1n6Ols-8" edge="1">
          <mxGeometry relative="1" as="geometry" />
        </mxCell>
        <mxCell id="9tMe9ChNtQxmry1n6Ols-20" style="edgeStyle=orthogonalEdgeStyle;rounded=0;orthogonalLoop=1;jettySize=auto;html=1;exitX=0;exitY=0.5;exitDx=0;exitDy=0;entryX=1;entryY=0.5;entryDx=0;entryDy=0;fontSize=14;strokeColor=default;strokeWidth=1;" parent="1" source="9tMe9ChNtQxmry1n6Ols-2" target="9tMe9ChNtQxmry1n6Ols-10" edge="1">
          <mxGeometry relative="1" as="geometry" />
        </mxCell>
        <mxCell id="9tMe9ChNtQxmry1n6Ols-21" style="edgeStyle=orthogonalEdgeStyle;rounded=0;orthogonalLoop=1;jettySize=auto;html=1;exitX=0;exitY=0.5;exitDx=0;exitDy=0;entryX=1;entryY=0.5;entryDx=0;entryDy=0;fontSize=14;strokeColor=default;strokeWidth=1;" parent="1" source="9tMe9ChNtQxmry1n6Ols-2" target="9tMe9ChNtQxmry1n6Ols-11" edge="1">
          <mxGeometry relative="1" as="geometry" />
        </mxCell>
        <mxCell id="9tMe9ChNtQxmry1n6Ols-23" style="edgeStyle=orthogonalEdgeStyle;rounded=0;orthogonalLoop=1;jettySize=auto;html=1;exitX=1;exitY=0.5;exitDx=0;exitDy=0;entryX=0;entryY=0.5;entryDx=0;entryDy=0;fontSize=14;strokeColor=default;strokeWidth=1;" parent="1" source="9tMe9ChNtQxmry1n6Ols-2" target="9tMe9ChNtQxmry1n6Ols-12" edge="1">
          <mxGeometry relative="1" as="geometry" />
        </mxCell>
        <mxCell id="9tMe9ChNtQxmry1n6Ols-25" style="edgeStyle=orthogonalEdgeStyle;rounded=0;orthogonalLoop=1;jettySize=auto;html=1;exitX=1;exitY=0.5;exitDx=0;exitDy=0;entryX=0;entryY=0.5;entryDx=0;entryDy=0;fontSize=14;strokeColor=default;strokeWidth=1;" parent="1" source="9tMe9ChNtQxmry1n6Ols-2" target="9tMe9ChNtQxmry1n6Ols-14" edge="1">
          <mxGeometry relative="1" as="geometry" />
        </mxCell>
        <mxCell id="9tMe9ChNtQxmry1n6Ols-26" style="edgeStyle=orthogonalEdgeStyle;rounded=0;orthogonalLoop=1;jettySize=auto;html=1;exitX=1;exitY=0.5;exitDx=0;exitDy=0;entryX=0;entryY=0.5;entryDx=0;entryDy=0;fontSize=14;strokeColor=default;strokeWidth=1;" parent="1" source="9tMe9ChNtQxmry1n6Ols-2" target="9tMe9ChNtQxmry1n6Ols-15" edge="1">
          <mxGeometry relative="1" as="geometry" />
        </mxCell>
        <mxCell id="9tMe9ChNtQxmry1n6Ols-94" style="edgeStyle=orthogonalEdgeStyle;rounded=0;orthogonalLoop=1;jettySize=auto;html=1;exitX=1;exitY=0.5;exitDx=0;exitDy=0;entryX=0;entryY=0.5;entryDx=0;entryDy=0;fontSize=14;strokeColor=default;strokeWidth=1;" parent="1" source="9tMe9ChNtQxmry1n6Ols-2" target="9tMe9ChNtQxmry1n6Ols-93" edge="1">
          <mxGeometry relative="1" as="geometry" />
        </mxCell>
        <mxCell id="9tMe9ChNtQxmry1n6Ols-2" value="&lt;font style=&quot;font-size: 24px;&quot;&gt;Polyscope&lt;/font&gt;" style="ellipse;whiteSpace=wrap;html=1;aspect=fixed;strokeWidth=1;strokeColor=default;fillColor=none;" parent="1" vertex="1">
          <mxGeometry x="200" y="160" width="120" height="120" as="geometry" />
        </mxCell>
        <mxCell id="9tMe9ChNtQxmry1n6Ols-6" value="&lt;font style=&quot;font-size: 14px;&quot;&gt;Tutorials&lt;/font&gt;" style="ellipse;whiteSpace=wrap;html=1;fontSize=24;strokeColor=default;strokeWidth=1;fillColor=none;" parent="1" vertex="1">
          <mxGeometry x="20" y="110" width="140" height="40" as="geometry" />
        </mxCell>
        <mxCell id="9tMe9ChNtQxmry1n6Ols-8" value="&lt;font style=&quot;font-size: 14px;&quot;&gt;Ease of Use&lt;/font&gt;" style="ellipse;whiteSpace=wrap;html=1;fontSize=24;strokeColor=default;strokeWidth=1;fillColor=none;" parent="1" vertex="1">
          <mxGeometry x="20" y="170" width="140" height="40" as="geometry" />
        </mxCell>
        <mxCell id="9tMe9ChNtQxmry1n6Ols-10" value="&lt;font style=&quot;font-size: 14px;&quot;&gt;UR Caps&lt;/font&gt;" style="ellipse;whiteSpace=wrap;html=1;fontSize=24;strokeColor=default;strokeWidth=1;fillColor=none;" parent="1" vertex="1">
          <mxGeometry x="20" y="230" width="140" height="40" as="geometry" />
        </mxCell>
        <mxCell id="9tMe9ChNtQxmry1n6Ols-11" value="&lt;font style=&quot;font-size: 14px;&quot;&gt;Documentation&lt;/font&gt;" style="ellipse;whiteSpace=wrap;html=1;fontSize=24;strokeColor=default;strokeWidth=1;fillColor=none;" parent="1" vertex="1">
          <mxGeometry x="20" y="290" width="140" height="40" as="geometry" />
        </mxCell>
        <mxCell id="9tMe9ChNtQxmry1n6Ols-12" value="&lt;font style=&quot;font-size: 14px;&quot;&gt;Flexibility&lt;/font&gt;" style="ellipse;whiteSpace=wrap;html=1;fontSize=24;strokeWidth=1;strokeColor=default;fillColor=none;" parent="1" vertex="1">
          <mxGeometry x="360" y="110" width="140" height="40" as="geometry" />
        </mxCell>
        <mxCell id="9tMe9ChNtQxmry1n6Ols-14" value="&lt;span style=&quot;font-size: 14px;&quot;&gt;Offline use&lt;/span&gt;" style="ellipse;whiteSpace=wrap;html=1;fontSize=24;strokeWidth=1;strokeColor=default;fillColor=none;" parent="1" vertex="1">
          <mxGeometry x="360" y="170" width="140" height="40" as="geometry" />
        </mxCell>
        <mxCell id="9tMe9ChNtQxmry1n6Ols-15" value="&lt;font style=&quot;font-size: 14px;&quot;&gt;Simulation&lt;/font&gt;" style="ellipse;whiteSpace=wrap;html=1;fontSize=24;strokeWidth=1;strokeColor=default;fillColor=none;" parent="1" vertex="1">
          <mxGeometry x="360" y="230" width="140" height="40" as="geometry" />
        </mxCell>
        <mxCell id="9tMe9ChNtQxmry1n6Ols-28" style="edgeStyle=orthogonalEdgeStyle;rounded=0;orthogonalLoop=1;jettySize=auto;html=1;exitX=0;exitY=0.5;exitDx=0;exitDy=0;entryX=1;entryY=0.5;entryDx=0;entryDy=0;fontSize=14;strokeColor=default;strokeWidth=1;" parent="1" target="9tMe9ChNtQxmry1n6Ols-38" edge="1">
          <mxGeometry relative="1" as="geometry">
            <mxPoint x="879.999999999998" y="520" as="sourcePoint" />
          </mxGeometry>
        </mxCell>
        <mxCell id="9tMe9ChNtQxmry1n6Ols-30" style="edgeStyle=orthogonalEdgeStyle;rounded=0;orthogonalLoop=1;jettySize=auto;html=1;exitX=0;exitY=0.5;exitDx=0;exitDy=0;entryX=1;entryY=0.5;entryDx=0;entryDy=0;fontSize=14;strokeColor=default;strokeWidth=1;" parent="1" target="9tMe9ChNtQxmry1n6Ols-40" edge="1">
          <mxGeometry relative="1" as="geometry">
            <mxPoint x="879.999999999998" y="520" as="sourcePoint" />
          </mxGeometry>
        </mxCell>
        <mxCell id="9tMe9ChNtQxmry1n6Ols-33" style="edgeStyle=orthogonalEdgeStyle;rounded=0;orthogonalLoop=1;jettySize=auto;html=1;exitX=1;exitY=0.5;exitDx=0;exitDy=0;entryX=0;entryY=0.5;entryDx=0;entryDy=0;fontSize=14;strokeColor=default;strokeWidth=1;" parent="1" target="9tMe9ChNtQxmry1n6Ols-42" edge="1">
          <mxGeometry relative="1" as="geometry">
            <mxPoint x="1000.0000000000025" y="520" as="sourcePoint" />
          </mxGeometry>
        </mxCell>
        <mxCell id="9tMe9ChNtQxmry1n6Ols-34" style="edgeStyle=orthogonalEdgeStyle;rounded=0;orthogonalLoop=1;jettySize=auto;html=1;exitX=1;exitY=0.5;exitDx=0;exitDy=0;entryX=0;entryY=0.5;entryDx=0;entryDy=0;fontSize=14;strokeColor=default;strokeWidth=1;" parent="1" target="9tMe9ChNtQxmry1n6Ols-43" edge="1">
          <mxGeometry relative="1" as="geometry">
            <mxPoint x="1000.0000000000025" y="520" as="sourcePoint" />
          </mxGeometry>
        </mxCell>
        <mxCell id="9tMe9ChNtQxmry1n6Ols-36" style="edgeStyle=orthogonalEdgeStyle;rounded=0;orthogonalLoop=1;jettySize=auto;html=1;exitX=1;exitY=0.5;exitDx=0;exitDy=0;entryX=0;entryY=0.5;entryDx=0;entryDy=0;fontSize=14;strokeColor=default;strokeWidth=1;" parent="1" target="9tMe9ChNtQxmry1n6Ols-45" edge="1">
          <mxGeometry relative="1" as="geometry">
            <mxPoint x="1000.0000000000025" y="520" as="sourcePoint" />
          </mxGeometry>
        </mxCell>
        <mxCell id="9tMe9ChNtQxmry1n6Ols-48" style="edgeStyle=orthogonalEdgeStyle;rounded=0;orthogonalLoop=1;jettySize=auto;html=1;exitX=0;exitY=0.5;exitDx=0;exitDy=0;entryX=1;entryY=0.5;entryDx=0;entryDy=0;fontSize=14;strokeColor=default;strokeWidth=1;" parent="1" target="9tMe9ChNtQxmry1n6Ols-47" edge="1">
          <mxGeometry relative="1" as="geometry">
            <mxPoint x="879.999999999998" y="520" as="sourcePoint" />
          </mxGeometry>
        </mxCell>
        <mxCell id="9tMe9ChNtQxmry1n6Ols-70" style="edgeStyle=orthogonalEdgeStyle;rounded=0;orthogonalLoop=1;jettySize=auto;html=1;exitX=0;exitY=0.5;exitDx=0;exitDy=0;entryX=1;entryY=0.5;entryDx=0;entryDy=0;fontSize=14;strokeColor=default;strokeWidth=1;" parent="1" target="9tMe9ChNtQxmry1n6Ols-69" edge="1">
          <mxGeometry relative="1" as="geometry">
            <mxPoint x="879.999999999998" y="520" as="sourcePoint" />
          </mxGeometry>
        </mxCell>
        <mxCell id="9tMe9ChNtQxmry1n6Ols-72" style="edgeStyle=orthogonalEdgeStyle;rounded=0;orthogonalLoop=1;jettySize=auto;html=1;exitX=1;exitY=0.5;exitDx=0;exitDy=0;entryX=0;entryY=0.5;entryDx=0;entryDy=0;fontSize=14;strokeColor=default;strokeWidth=1;" parent="1" target="9tMe9ChNtQxmry1n6Ols-71" edge="1">
          <mxGeometry relative="1" as="geometry">
            <mxPoint x="1000.0000000000025" y="520" as="sourcePoint" />
          </mxGeometry>
        </mxCell>
        <mxCell id="9tMe9ChNtQxmry1n6Ols-38" value="&lt;font style=&quot;font-size: 14px;&quot;&gt;Open Source&lt;/font&gt;" style="ellipse;whiteSpace=wrap;html=1;fontSize=24;strokeColor=default;strokeWidth=1;fillColor=none;" parent="1" vertex="1">
          <mxGeometry x="700" y="410" width="140" height="40" as="geometry" />
        </mxCell>
        <mxCell id="9tMe9ChNtQxmry1n6Ols-40" value="&lt;font style=&quot;font-size: 14px;&quot;&gt;Flexibility&lt;/font&gt;" style="ellipse;whiteSpace=wrap;html=1;fontSize=24;strokeColor=default;strokeWidth=1;fillColor=none;" parent="1" vertex="1">
          <mxGeometry x="700" y="470" width="140" height="40" as="geometry" />
        </mxCell>
        <mxCell id="9tMe9ChNtQxmry1n6Ols-42" value="&lt;span style=&quot;font-size: 14px;&quot;&gt;Setup Process&lt;/span&gt;" style="ellipse;whiteSpace=wrap;html=1;fontSize=24;strokeWidth=1;strokeColor=default;fillColor=none;" parent="1" vertex="1">
          <mxGeometry x="1040" y="410" width="140" height="40" as="geometry" />
        </mxCell>
        <mxCell id="9tMe9ChNtQxmry1n6Ols-43" value="&lt;span style=&quot;font-size: 14px;&quot;&gt;Tutorials&lt;/span&gt;" style="ellipse;whiteSpace=wrap;html=1;fontSize=24;strokeWidth=1;strokeColor=default;fillColor=none;" parent="1" vertex="1">
          <mxGeometry x="1040" y="470" width="140" height="40" as="geometry" />
        </mxCell>
        <mxCell id="9tMe9ChNtQxmry1n6Ols-45" value="&lt;span style=&quot;font-size: 14px;&quot;&gt;Time and Effort&lt;/span&gt;" style="ellipse;whiteSpace=wrap;html=1;fontSize=24;strokeWidth=1;strokeColor=default;fillColor=none;" parent="1" vertex="1">
          <mxGeometry x="1040" y="530" width="140" height="40" as="geometry" />
        </mxCell>
        <mxCell id="9tMe9ChNtQxmry1n6Ols-47" value="&lt;font style=&quot;font-size: 14px;&quot;&gt;Simulation&lt;/font&gt;" style="ellipse;whiteSpace=wrap;html=1;fontSize=24;strokeColor=default;strokeWidth=1;fillColor=none;" parent="1" vertex="1">
          <mxGeometry x="700" y="530" width="140" height="40" as="geometry" />
        </mxCell>
        <mxCell id="9tMe9ChNtQxmry1n6Ols-50" style="edgeStyle=orthogonalEdgeStyle;rounded=0;orthogonalLoop=1;jettySize=auto;html=1;exitX=0;exitY=0.5;exitDx=0;exitDy=0;entryX=1;entryY=0.5;entryDx=0;entryDy=0;fontSize=14;strokeColor=default;strokeWidth=1;" parent="1" target="9tMe9ChNtQxmry1n6Ols-60" edge="1">
          <mxGeometry relative="1" as="geometry">
            <mxPoint x="880.0000000000043" y="220" as="sourcePoint" />
          </mxGeometry>
        </mxCell>
        <mxCell id="9tMe9ChNtQxmry1n6Ols-51" style="edgeStyle=orthogonalEdgeStyle;rounded=0;orthogonalLoop=1;jettySize=auto;html=1;exitX=0;exitY=0.5;exitDx=0;exitDy=0;entryX=1;entryY=0.5;entryDx=0;entryDy=0;fontSize=14;strokeColor=default;strokeWidth=1;" parent="1" target="9tMe9ChNtQxmry1n6Ols-61" edge="1">
          <mxGeometry relative="1" as="geometry">
            <mxPoint x="880.0000000000043" y="220" as="sourcePoint" />
          </mxGeometry>
        </mxCell>
        <mxCell id="9tMe9ChNtQxmry1n6Ols-52" style="edgeStyle=orthogonalEdgeStyle;rounded=0;orthogonalLoop=1;jettySize=auto;html=1;exitX=0;exitY=0.5;exitDx=0;exitDy=0;entryX=1;entryY=0.5;entryDx=0;entryDy=0;fontSize=14;strokeColor=default;strokeWidth=1;" parent="1" target="9tMe9ChNtQxmry1n6Ols-62" edge="1">
          <mxGeometry relative="1" as="geometry">
            <mxPoint x="880.0000000000043" y="220" as="sourcePoint" />
          </mxGeometry>
        </mxCell>
        <mxCell id="9tMe9ChNtQxmry1n6Ols-53" style="edgeStyle=orthogonalEdgeStyle;rounded=0;orthogonalLoop=1;jettySize=auto;html=1;exitX=0;exitY=0.5;exitDx=0;exitDy=0;entryX=1;entryY=0.5;entryDx=0;entryDy=0;fontSize=14;strokeColor=default;strokeWidth=1;" parent="1" target="9tMe9ChNtQxmry1n6Ols-63" edge="1">
          <mxGeometry relative="1" as="geometry">
            <mxPoint x="880.0000000000043" y="220" as="sourcePoint" />
          </mxGeometry>
        </mxCell>
        <mxCell id="9tMe9ChNtQxmry1n6Ols-55" style="edgeStyle=orthogonalEdgeStyle;rounded=0;orthogonalLoop=1;jettySize=auto;html=1;exitX=1;exitY=0.5;exitDx=0;exitDy=0;entryX=0;entryY=0.5;entryDx=0;entryDy=0;fontSize=14;strokeColor=default;strokeWidth=1;" parent="1" target="9tMe9ChNtQxmry1n6Ols-64" edge="1">
          <mxGeometry relative="1" as="geometry">
            <mxPoint x="999.9999999999955" y="220" as="sourcePoint" />
          </mxGeometry>
        </mxCell>
        <mxCell id="9tMe9ChNtQxmry1n6Ols-56" style="edgeStyle=orthogonalEdgeStyle;rounded=0;orthogonalLoop=1;jettySize=auto;html=1;exitX=1;exitY=0.5;exitDx=0;exitDy=0;entryX=0;entryY=0.5;entryDx=0;entryDy=0;fontSize=14;strokeColor=default;strokeWidth=1;" parent="1" target="9tMe9ChNtQxmry1n6Ols-65" edge="1">
          <mxGeometry relative="1" as="geometry">
            <mxPoint x="999.9999999999955" y="220" as="sourcePoint" />
          </mxGeometry>
        </mxCell>
        <mxCell id="9tMe9ChNtQxmry1n6Ols-57" style="edgeStyle=orthogonalEdgeStyle;rounded=0;orthogonalLoop=1;jettySize=auto;html=1;exitX=1;exitY=0.5;exitDx=0;exitDy=0;entryX=0;entryY=0.5;entryDx=0;entryDy=0;fontSize=14;strokeColor=default;strokeWidth=1;" parent="1" target="9tMe9ChNtQxmry1n6Ols-66" edge="1">
          <mxGeometry relative="1" as="geometry">
            <mxPoint x="999.9999999999955" y="220" as="sourcePoint" />
          </mxGeometry>
        </mxCell>
        <mxCell id="9tMe9ChNtQxmry1n6Ols-58" style="edgeStyle=orthogonalEdgeStyle;rounded=0;orthogonalLoop=1;jettySize=auto;html=1;exitX=1;exitY=0.5;exitDx=0;exitDy=0;entryX=0;entryY=0.5;entryDx=0;entryDy=0;fontSize=14;strokeColor=default;strokeWidth=1;" parent="1" target="9tMe9ChNtQxmry1n6Ols-67" edge="1">
          <mxGeometry relative="1" as="geometry">
            <mxPoint x="999.9999999999955" y="220" as="sourcePoint" />
          </mxGeometry>
        </mxCell>
        <mxCell id="9tMe9ChNtQxmry1n6Ols-60" value="&lt;span style=&quot;font-size: 14px;&quot;&gt;Installation&lt;/span&gt;" style="ellipse;whiteSpace=wrap;html=1;fontSize=24;strokeColor=default;strokeWidth=1;fillColor=none;" parent="1" vertex="1">
          <mxGeometry x="700" y="110" width="140" height="40" as="geometry" />
        </mxCell>
        <mxCell id="9tMe9ChNtQxmry1n6Ols-61" value="&lt;font style=&quot;font-size: 14px;&quot;&gt;Simulation&lt;/font&gt;" style="ellipse;whiteSpace=wrap;html=1;fontSize=24;strokeColor=default;strokeWidth=1;fillColor=none;" parent="1" vertex="1">
          <mxGeometry x="700" y="170" width="140" height="40" as="geometry" />
        </mxCell>
        <mxCell id="9tMe9ChNtQxmry1n6Ols-62" value="&lt;font style=&quot;font-size: 14px;&quot;&gt;Function Blocks&lt;/font&gt;" style="ellipse;whiteSpace=wrap;html=1;fontSize=24;strokeColor=default;strokeWidth=1;fillColor=none;" parent="1" vertex="1">
          <mxGeometry x="700" y="230" width="140" height="40" as="geometry" />
        </mxCell>
        <mxCell id="9tMe9ChNtQxmry1n6Ols-63" value="&lt;font style=&quot;font-size: 14px;&quot;&gt;Path Planning&lt;/font&gt;" style="ellipse;whiteSpace=wrap;html=1;fontSize=24;strokeColor=default;strokeWidth=1;fillColor=none;" parent="1" vertex="1">
          <mxGeometry x="700" y="290" width="140" height="40" as="geometry" />
        </mxCell>
        <mxCell id="9tMe9ChNtQxmry1n6Ols-64" value="&lt;font style=&quot;font-size: 14px;&quot;&gt;Intuitive&lt;/font&gt;" style="ellipse;whiteSpace=wrap;html=1;fontSize=24;strokeWidth=1;strokeColor=default;fillColor=none;" parent="1" vertex="1">
          <mxGeometry x="1040" y="110" width="140" height="40" as="geometry" />
        </mxCell>
        <mxCell id="9tMe9ChNtQxmry1n6Ols-65" value="&lt;span style=&quot;font-size: 14px;&quot;&gt;Tutorials and Documentation&lt;/span&gt;" style="ellipse;whiteSpace=wrap;html=1;fontSize=24;strokeWidth=1;strokeColor=default;fillColor=none;" parent="1" vertex="1">
          <mxGeometry x="1040" y="170" width="200" height="40" as="geometry" />
        </mxCell>
        <mxCell id="9tMe9ChNtQxmry1n6Ols-66" value="&lt;span style=&quot;font-size: 14px;&quot;&gt;Block Connections&lt;/span&gt;" style="ellipse;whiteSpace=wrap;html=1;fontSize=24;strokeWidth=1;strokeColor=default;fillColor=none;" parent="1" vertex="1">
          <mxGeometry x="1040" y="230" width="140" height="40" as="geometry" />
        </mxCell>
        <mxCell id="9tMe9ChNtQxmry1n6Ols-67" value="&lt;font style=&quot;font-size: 14px;&quot;&gt;Overlaying Controller&lt;/font&gt;" style="ellipse;whiteSpace=wrap;html=1;fontSize=24;strokeWidth=1;strokeColor=default;fillColor=none;" parent="1" vertex="1">
          <mxGeometry x="1040" y="290" width="140" height="40" as="geometry" />
        </mxCell>
        <mxCell id="9tMe9ChNtQxmry1n6Ols-69" value="&lt;font style=&quot;font-size: 14px;&quot;&gt;Path Planning&lt;/font&gt;" style="ellipse;whiteSpace=wrap;html=1;fontSize=24;strokeColor=default;strokeWidth=1;fillColor=none;" parent="1" vertex="1">
          <mxGeometry x="700" y="590" width="140" height="40" as="geometry" />
        </mxCell>
        <mxCell id="9tMe9ChNtQxmry1n6Ols-71" value="&lt;span style=&quot;font-size: 14px;&quot;&gt;Learning Curve&lt;/span&gt;" style="ellipse;whiteSpace=wrap;html=1;fontSize=24;strokeWidth=1;strokeColor=default;fillColor=none;" parent="1" vertex="1">
          <mxGeometry x="1040" y="590" width="140" height="40" as="geometry" />
        </mxCell>
        <mxCell id="9tMe9ChNtQxmry1n6Ols-74" style="edgeStyle=orthogonalEdgeStyle;rounded=0;orthogonalLoop=1;jettySize=auto;html=1;exitX=0;exitY=0.5;exitDx=0;exitDy=0;entryX=1;entryY=0.5;entryDx=0;entryDy=0;fontSize=14;strokeColor=default;strokeWidth=1;" parent="1" target="9tMe9ChNtQxmry1n6Ols-84" edge="1">
          <mxGeometry relative="1" as="geometry">
            <mxPoint x="200.00000000000432" y="520" as="sourcePoint" />
          </mxGeometry>
        </mxCell>
        <mxCell id="9tMe9ChNtQxmry1n6Ols-75" style="edgeStyle=orthogonalEdgeStyle;rounded=0;orthogonalLoop=1;jettySize=auto;html=1;exitX=0;exitY=0.5;exitDx=0;exitDy=0;entryX=1;entryY=0.5;entryDx=0;entryDy=0;fontSize=14;strokeColor=default;strokeWidth=1;" parent="1" target="9tMe9ChNtQxmry1n6Ols-85" edge="1">
          <mxGeometry relative="1" as="geometry">
            <mxPoint x="200.00000000000432" y="520" as="sourcePoint" />
          </mxGeometry>
        </mxCell>
        <mxCell id="9tMe9ChNtQxmry1n6Ols-76" style="edgeStyle=orthogonalEdgeStyle;rounded=0;orthogonalLoop=1;jettySize=auto;html=1;exitX=0;exitY=0.5;exitDx=0;exitDy=0;entryX=1;entryY=0.5;entryDx=0;entryDy=0;fontSize=14;strokeColor=default;strokeWidth=1;" parent="1" target="9tMe9ChNtQxmry1n6Ols-86" edge="1">
          <mxGeometry relative="1" as="geometry">
            <mxPoint x="200.00000000000432" y="520" as="sourcePoint" />
          </mxGeometry>
        </mxCell>
        <mxCell id="9tMe9ChNtQxmry1n6Ols-79" style="edgeStyle=orthogonalEdgeStyle;rounded=0;orthogonalLoop=1;jettySize=auto;html=1;exitX=1;exitY=0.5;exitDx=0;exitDy=0;entryX=0;entryY=0.5;entryDx=0;entryDy=0;fontSize=14;strokeColor=default;strokeWidth=1;" parent="1" target="9tMe9ChNtQxmry1n6Ols-88" edge="1">
          <mxGeometry relative="1" as="geometry">
            <mxPoint x="319.99999999999545" y="520" as="sourcePoint" />
          </mxGeometry>
        </mxCell>
        <mxCell id="9tMe9ChNtQxmry1n6Ols-80" style="edgeStyle=orthogonalEdgeStyle;rounded=0;orthogonalLoop=1;jettySize=auto;html=1;exitX=1;exitY=0.5;exitDx=0;exitDy=0;entryX=0;entryY=0.5;entryDx=0;entryDy=0;fontSize=14;strokeColor=default;strokeWidth=1;" parent="1" target="9tMe9ChNtQxmry1n6Ols-89" edge="1">
          <mxGeometry relative="1" as="geometry">
            <mxPoint x="319.99999999999545" y="520" as="sourcePoint" />
          </mxGeometry>
        </mxCell>
        <mxCell id="9tMe9ChNtQxmry1n6Ols-81" style="edgeStyle=orthogonalEdgeStyle;rounded=0;orthogonalLoop=1;jettySize=auto;html=1;exitX=1;exitY=0.5;exitDx=0;exitDy=0;entryX=0;entryY=0.5;entryDx=0;entryDy=0;fontSize=14;strokeColor=default;strokeWidth=1;" parent="1" target="9tMe9ChNtQxmry1n6Ols-90" edge="1">
          <mxGeometry relative="1" as="geometry">
            <mxPoint x="319.99999999999545" y="520" as="sourcePoint" />
          </mxGeometry>
        </mxCell>
        <mxCell id="9tMe9ChNtQxmry1n6Ols-96" style="edgeStyle=orthogonalEdgeStyle;rounded=0;orthogonalLoop=1;jettySize=auto;html=1;exitX=0;exitY=0.5;exitDx=0;exitDy=0;entryX=1;entryY=0.5;entryDx=0;entryDy=0;fontSize=14;strokeColor=default;strokeWidth=1;" parent="1" target="9tMe9ChNtQxmry1n6Ols-95" edge="1">
          <mxGeometry relative="1" as="geometry">
            <mxPoint x="200.00000000000432" y="520" as="sourcePoint" />
          </mxGeometry>
        </mxCell>
        <mxCell id="9tMe9ChNtQxmry1n6Ols-84" value="&lt;font style=&quot;font-size: 14px;&quot;&gt;Flexibility&lt;/font&gt;" style="ellipse;whiteSpace=wrap;html=1;fontSize=24;strokeColor=default;strokeWidth=1;fillColor=none;" parent="1" vertex="1">
          <mxGeometry x="20" y="410" width="140" height="40" as="geometry" />
        </mxCell>
        <mxCell id="9tMe9ChNtQxmry1n6Ols-85" value="&lt;font style=&quot;font-size: 14px;&quot;&gt;Learning Curve&lt;/font&gt;" style="ellipse;whiteSpace=wrap;html=1;fontSize=24;strokeColor=default;strokeWidth=1;fillColor=none;" parent="1" vertex="1">
          <mxGeometry x="20" y="470" width="140" height="40" as="geometry" />
        </mxCell>
        <mxCell id="9tMe9ChNtQxmry1n6Ols-86" value="&lt;font style=&quot;font-size: 14px;&quot;&gt;Documentation&lt;/font&gt;" style="ellipse;whiteSpace=wrap;html=1;fontSize=24;strokeColor=default;strokeWidth=1;fillColor=none;" parent="1" vertex="1">
          <mxGeometry x="20" y="530" width="140" height="40" as="geometry" />
        </mxCell>
        <mxCell id="9tMe9ChNtQxmry1n6Ols-88" value="&lt;font style=&quot;font-size: 14px;&quot;&gt;Controller I/O&lt;/font&gt;" style="ellipse;whiteSpace=wrap;html=1;fontSize=24;strokeWidth=1;strokeColor=default;fillColor=none;" parent="1" vertex="1">
          <mxGeometry x="360" y="440" width="140" height="40" as="geometry" />
        </mxCell>
        <mxCell id="9tMe9ChNtQxmry1n6Ols-89" value="&lt;span style=&quot;font-size: 14px;&quot;&gt;Simulation&lt;/span&gt;" style="ellipse;whiteSpace=wrap;html=1;fontSize=24;strokeWidth=1;strokeColor=default;fillColor=none;" parent="1" vertex="1">
          <mxGeometry x="360" y="500" width="140" height="40" as="geometry" />
        </mxCell>
        <mxCell id="9tMe9ChNtQxmry1n6Ols-90" value="&lt;span style=&quot;font-size: 14px;&quot;&gt;Force Control&lt;/span&gt;" style="ellipse;whiteSpace=wrap;html=1;fontSize=24;strokeWidth=1;strokeColor=default;fillColor=none;" parent="1" vertex="1">
          <mxGeometry x="360" y="560" width="140" height="40" as="geometry" />
        </mxCell>
        <mxCell id="9tMe9ChNtQxmry1n6Ols-93" value="&lt;font style=&quot;font-size: 14px;&quot;&gt;Reusability&lt;/font&gt;" style="ellipse;whiteSpace=wrap;html=1;fontSize=24;strokeWidth=1;strokeColor=default;fillColor=none;" parent="1" vertex="1">
          <mxGeometry x="360" y="290" width="140" height="40" as="geometry" />
        </mxCell>
        <mxCell id="9tMe9ChNtQxmry1n6Ols-95" value="&lt;span style=&quot;font-size: 14px;&quot;&gt;Reusability&lt;/span&gt;" style="ellipse;whiteSpace=wrap;html=1;fontSize=24;strokeColor=default;strokeWidth=1;fillColor=none;" parent="1" vertex="1">
          <mxGeometry x="20" y="590" width="140" height="40" as="geometry" />
        </mxCell>
        <mxCell id="9tMe9ChNtQxmry1n6Ols-101" value="&lt;font style=&quot;font-size: 24px;&quot;&gt;Artiminds&lt;/font&gt;" style="ellipse;whiteSpace=wrap;html=1;aspect=fixed;strokeWidth=1;strokeColor=default;fillColor=none;" parent="1" vertex="1">
          <mxGeometry x="880" y="160" width="120" height="120" as="geometry" />
        </mxCell>
        <mxCell id="9tMe9ChNtQxmry1n6Ols-102" value="&lt;font style=&quot;font-size: 24px;&quot;&gt;RTDE&lt;/font&gt;" style="ellipse;whiteSpace=wrap;html=1;aspect=fixed;strokeWidth=1;strokeColor=default;fillColor=none;" parent="1" vertex="1">
          <mxGeometry x="200" y="460" width="120" height="120" as="geometry" />
        </mxCell>
        <mxCell id="9tMe9ChNtQxmry1n6Ols-103" value="&lt;font style=&quot;font-size: 24px;&quot;&gt;MoveIt&lt;/font&gt;" style="ellipse;whiteSpace=wrap;html=1;aspect=fixed;strokeWidth=1;strokeColor=default;fillColor=none;" parent="1" vertex="1">
          <mxGeometry x="880" y="460" width="120" height="120" as="geometry" />
        </mxCell>
        <mxCell id="9tMe9ChNtQxmry1n6Ols-104" value="&lt;div&gt;Pros&lt;/div&gt;" style="text;html=1;strokeColor=none;fillColor=none;align=center;verticalAlign=middle;whiteSpace=wrap;rounded=0;strokeWidth=1;fontSize=14;" parent="1" vertex="1">
          <mxGeometry x="55" y="83" width="70" height="30" as="geometry" />
        </mxCell>
        <mxCell id="9tMe9ChNtQxmry1n6Ols-105" value="&lt;font style=&quot;font-size: 18px;&quot;&gt;&quot;All Inclusive&quot;&lt;/font&gt;" style="text;html=1;strokeColor=none;fillColor=none;align=center;verticalAlign=middle;whiteSpace=wrap;rounded=0;strokeWidth=1;fontSize=14;" parent="1" vertex="1">
          <mxGeometry x="870" y="130" width="140" height="30" as="geometry" />
        </mxCell>
        <mxCell id="9tMe9ChNtQxmry1n6Ols-106" value="&lt;font style=&quot;font-size: 18px;&quot;&gt;&quot;Customization without limits&quot;&lt;/font&gt;" style="text;html=1;strokeColor=none;fillColor=none;align=center;verticalAlign=middle;whiteSpace=wrap;rounded=0;strokeWidth=1;fontSize=14;" parent="1" vertex="1">
          <mxGeometry x="870" y="420" width="140" height="30" as="geometry" />
        </mxCell>
        <mxCell id="9tMe9ChNtQxmry1n6Ols-107" value="&lt;font style=&quot;font-size: 18px;&quot;&gt;&quot;Python for Robots&quot;&lt;/font&gt;" style="text;html=1;strokeColor=none;fillColor=none;align=center;verticalAlign=middle;whiteSpace=wrap;rounded=0;strokeWidth=1;fontSize=14;" parent="1" vertex="1">
          <mxGeometry x="190" y="420" width="140" height="30" as="geometry" />
        </mxCell>
        <mxCell id="MCZ0V63Wtdz7rVq8YFm1-1" value="&lt;font style=&quot;font-size: 18px;&quot;&gt;&quot;Easy and simple&quot;&lt;/font&gt;" style="text;html=1;strokeColor=none;fillColor=none;align=center;verticalAlign=middle;whiteSpace=wrap;rounded=0;strokeWidth=1;fontSize=14;" vertex="1" parent="1">
          <mxGeometry x="190" y="120" width="140" height="30" as="geometry" />
        </mxCell>
        <mxCell id="MCZ0V63Wtdz7rVq8YFm1-2" value="Cons" style="text;html=1;strokeColor=none;fillColor=none;align=center;verticalAlign=middle;whiteSpace=wrap;rounded=0;strokeWidth=1;fontSize=14;" vertex="1" parent="1">
          <mxGeometry x="395" y="83" width="70" height="30" as="geometry" />
        </mxCell>
        <mxCell id="MCZ0V63Wtdz7rVq8YFm1-3" value="&lt;div&gt;Pros&lt;/div&gt;" style="text;html=1;strokeColor=none;fillColor=none;align=center;verticalAlign=middle;whiteSpace=wrap;rounded=0;strokeWidth=1;fontSize=14;" vertex="1" parent="1">
          <mxGeometry x="55" y="384" width="70" height="30" as="geometry" />
        </mxCell>
        <mxCell id="MCZ0V63Wtdz7rVq8YFm1-4" value="Cons" style="text;html=1;strokeColor=none;fillColor=none;align=center;verticalAlign=middle;whiteSpace=wrap;rounded=0;strokeWidth=1;fontSize=14;" vertex="1" parent="1">
          <mxGeometry x="395" y="384" width="70" height="30" as="geometry" />
        </mxCell>
        <mxCell id="MCZ0V63Wtdz7rVq8YFm1-5" value="&lt;div&gt;Pros&lt;/div&gt;" style="text;html=1;strokeColor=none;fillColor=none;align=center;verticalAlign=middle;whiteSpace=wrap;rounded=0;strokeWidth=1;fontSize=14;" vertex="1" parent="1">
          <mxGeometry x="735" y="83" width="70" height="30" as="geometry" />
        </mxCell>
        <mxCell id="MCZ0V63Wtdz7rVq8YFm1-6" value="Cons" style="text;html=1;strokeColor=none;fillColor=none;align=center;verticalAlign=middle;whiteSpace=wrap;rounded=0;strokeWidth=1;fontSize=14;" vertex="1" parent="1">
          <mxGeometry x="1075" y="83" width="70" height="30" as="geometry" />
        </mxCell>
        <mxCell id="MCZ0V63Wtdz7rVq8YFm1-7" value="&lt;div&gt;Pros&lt;/div&gt;" style="text;html=1;strokeColor=none;fillColor=none;align=center;verticalAlign=middle;whiteSpace=wrap;rounded=0;strokeWidth=1;fontSize=14;" vertex="1" parent="1">
          <mxGeometry x="735" y="384" width="70" height="30" as="geometry" />
        </mxCell>
        <mxCell id="MCZ0V63Wtdz7rVq8YFm1-8" value="Cons" style="text;html=1;strokeColor=none;fillColor=none;align=center;verticalAlign=middle;whiteSpace=wrap;rounded=0;strokeWidth=1;fontSize=14;" vertex="1" parent="1">
          <mxGeometry x="1075" y="384" width="70" height="30" as="geometry" />
        </mxCell>
      </root>
    </mxGraphModel>
  </diagram>
</mxfile>
